<?xml version="1.0" standalone="no"?><!DOCTYPE svg PUBLIC "-//W3C//DTD SVG 1.1//EN" "http://www.w3.org/Graphics/SVG/1.1/DTD/svg11.dtd"><svg t="1729866352023" class="icon" viewBox="0 0 1024 1024" version="1.1" xmlns="http://www.w3.org/2000/svg" p-id="3151" xmlns:xlink="http://www.w3.org/1999/xlink" width="200" height="200"><path d="M256 36.571429 36.571429 36.571429l0 219.428571c0 0 0 219.428571 219.428571 219.428571s219.428571 0 219.428571 0 0 0 0-219.428571S256 36.571429 256 36.571429zM402.285714 402.285714l-146.285714 0c-133.6064 0-145.749943-112.393143-146.285714-146.285714L109.714286 109.714286l146.285714 0c24.427886 0 146.285714 7.071086 146.285714 146.285714L402.285714 402.285714z" fill="#2c2c2c" p-id="3152"></path><path d="M768 36.571429c0 0-219.428571 0-219.428571 219.428571s0 219.428571 0 219.428571 0 0 219.428571 0 219.428571-219.428571 219.428571-219.428571L987.428571 36.571429 768 36.571429zM914.285714 256c0 24.427886-7.071086 146.285714-146.285714 146.285714l-146.285714 0 0-146.285714c0-133.6064 112.393143-145.749943 146.285714-146.285714l146.285714 0L914.285714 256z" fill="#2c2c2c" p-id="3153"></path><path d="M768 548.571429c-219.428571 0-219.428571 0-219.428571 0s0 0 0 219.428571 219.428571 219.428571 219.428571 219.428571l219.428571 0L987.428571 768C987.428571 768 987.428571 548.571429 768 548.571429zM914.285714 914.285714l-146.285714 0c-24.427886 0-146.285714-7.071086-146.285714-146.285714l0-146.285714 146.285714 0c133.6064 0 145.749943 112.393143 146.285714 146.285714L914.285714 914.285714z" fill="#2c2c2c" p-id="3154"></path><path d="M36.571429 768l0 219.428571 219.428571 0c0 0 219.428571 0 219.428571-219.428571s0-219.428571 0-219.428571 0 0-219.428571 0S36.571429 768 36.571429 768zM402.285714 768c0 133.6064-112.393143 145.749943-146.285714 146.285714L109.714286 914.285714l0-146.285714c0-24.427886 7.071086-146.285714 146.285714-146.285714l146.285714 0L402.285714 768z" fill="#2c2c2c" p-id="3155"></path></svg>