<?xml version="1.0" standalone="no"?><!DOCTYPE svg PUBLIC "-//W3C//DTD SVG 1.1//EN" "http://www.w3.org/Graphics/SVG/1.1/DTD/svg11.dtd"><svg t="1729872003761" class="icon" viewBox="0 0 1024 1024" version="1.1" xmlns="http://www.w3.org/2000/svg" p-id="13623" xmlns:xlink="http://www.w3.org/1999/xlink" width="200" height="200"><path d="M838.41 63.95H101.23c-20.53 0-37.22 16.64-37.22 37.16V922.4c0 20.52 16.69 37.16 37.22 37.16h737.18c67.15 0 121.78-54.6 121.78-121.71V185.66c0-67.11-54.64-121.71-121.78-121.71z m-699.96 74.32h148.6c-0.03 0.69-0.4 1.28-0.4 1.99v744.98h-148.2V138.27z m747.3 699.58c0 26.11-21.26 47.39-47.35 47.39H367.84V140.25c0-0.7-0.36-1.29-0.4-1.99h470.97c26.09 0 47.35 21.28 47.35 47.39v652.2z" p-id="13624" fill="#2c2c2c"></path><path d="M598.62 270.07L428.69 752.54h75.03l35.89-107.91h177.34l36.22 107.91h74.76L657.95 270.07h-59.33z m-38.48 309.77l67.68-211.09h1.26l67.68 211.09H560.14z" p-id="13625" fill="#2c2c2c"></path></svg>